<svg width="38" height="37" viewBox="0 0 38 37" fill="none" xmlns="http://www.w3.org/2000/svg">
<path d="M3 19L3 9C3 5.68629 5.68629 3 9 3L29 3C32.3137 3 35 5.6863 35 9L35 19L3 19Z" fill="#EAF4EE"/>
<path d="M35 19L35 28C35 31.3137 32.3137 34 29 34L9 34C5.68629 34 3 31.3137 3 28L3 19L35 19Z" fill="#0C602E"/>
<path d="M3 18L3 27C3 30.866 6.13401 34 10 34L28 34C31.866 34 35 30.866 35 27L35 18" stroke="#0C602E" stroke-width="2"/>
<path d="M35 18L35 10C35 6.13401 31.866 3 28 3L10 3C6.13401 3 3 6.13401 3 10L3 18" stroke="#0C602E" stroke-width="2"/>
<rect x="1" y="1" width="36" height="35" rx="9" stroke="white" stroke-width="2"/>
<path d="M27.6667 18.375C27.6667 17.5462 26.7887 16.7513 25.2259 16.1653C23.6631 15.5792 21.5435 15.25 19.3333 15.25C17.1232 15.25 15.0036 15.5792 13.4408 16.1653C11.878 16.7513 11 17.5462 11 18.375C11 19.2038 11.878 19.9987 13.4408 20.5847C15.0036 21.1708 17.1232 21.5 19.3333 21.5C21.5435 21.5 23.6631 21.1708 25.2259 20.5847C26.7887 19.9987 27.6667 19.2038 27.6667 18.375Z" stroke="#0C602E" stroke-width="3" stroke-linecap="round" stroke-linejoin="round"/>
<path d="M27.6667 18.375C27.6667 17.5462 26.7887 16.7513 25.2259 16.1653C23.6631 15.5792 21.5435 15.25 19.3333 15.25C17.1232 15.25 15.0036 15.5792 13.4408 16.1653C11.878 16.7513 11 17.5462 11 18.375C11 19.2038 11.878 19.9987 13.4408 20.5847C15.0036 21.1708 17.1232 21.5 19.3333 21.5C21.5435 21.5 23.6631 21.1708 25.2259 20.5847C26.7887 19.9987 27.6667 19.2038 27.6667 18.375Z" stroke="#0C602E" stroke-width="3" stroke-linecap="round" stroke-linejoin="round"/>
<path d="M27.6667 18.375L27.6667 12.125C27.6667 11.2962 26.7887 10.5013 25.2259 9.91529C23.6631 9.32924 21.5435 9 19.3333 9C17.1232 9 15.0036 9.32924 13.4408 9.91529C11.878 10.5013 11 11.2962 11 12.125L11 18.375" stroke="#0C602E" stroke-width="3" stroke-linecap="round" stroke-linejoin="round"/>
<path d="M27.6667 18.375L27.6667 12.125C27.6667 11.2962 26.7887 10.5013 25.2259 9.91529C23.6631 9.32924 21.5435 9 19.3333 9C17.1232 9 15.0036 9.32924 13.4408 9.91529C11.878 10.5013 11 11.2962 11 12.125L11 18.375" stroke="#0C602E" stroke-width="3" stroke-linecap="round" stroke-linejoin="round"/>
<path d="M11 20C11 20.8288 11.878 21.6237 13.4408 22.2097C15.0036 22.7958 17.1232 23.125 19.3333 23.125C21.5435 23.125 23.6631 22.7958 25.2259 22.2097C26.7887 21.6237 27.6667 20.8288 27.6667 20" stroke="#EAF4EE" stroke-width="3" stroke-linecap="round" stroke-linejoin="round"/>
<path d="M11 20V26.25C11 27.0788 11.878 27.8737 13.4408 28.4597C15.0036 29.0458 17.1232 29.375 19.3333 29.375C21.5435 29.375 23.6631 29.0458 25.2259 28.4597C26.7887 27.8737 27.6667 27.0788 27.6667 26.25V20" stroke="#EAF4EE" stroke-width="3" stroke-linecap="round" stroke-linejoin="round"/>
<path d="M11 21V26.25C11 27.0788 11.878 27.8737 13.4408 28.4597C15.0036 29.0458 17.1232 29.375 19.3333 29.375C21.5435 29.375 23.6631 29.0458 25.2259 28.4597C26.7887 27.8737 27.6667 27.0788 27.6667 26.25V20" stroke="#EAF4EE" stroke-width="3" stroke-linecap="round" stroke-linejoin="round"/>
<rect x="9.5" y="16" width="19" height="2" fill="#0C602E"/>
<rect x="26" y="16" width="3.16" height="2" fill="#0C602E"/>
<rect x="9.5" y="17.4" width="19.67" height="4" fill="#EAF4EE"/>
<rect x="9.5" y="19" width="19.67" height="4" fill="#EAF4EE"/>
<rect x="8" y="19" width="22" height="2" fill="#0C602E"/>
</svg>
