<svg width="185" height="37" viewBox="0 0 185 37" fill="none" xmlns="http://www.w3.org/2000/svg">
<path d="M51.496 22.708C51.7573 23.436 52.1867 23.996 52.784 24.388C53.3813 24.7613 54.1467 24.948 55.08 24.948C56.0693 24.948 56.8253 24.7893 57.348 24.472C57.8707 24.1547 58.132 23.7067 58.132 23.128C58.132 22.6613 57.936 22.2973 57.544 22.036C57.152 21.756 56.5547 21.56 55.752 21.448L53.4 21.168C51.5147 20.9253 50.1053 20.384 49.172 19.544C48.2573 18.704 47.8 17.5187 47.8 15.988C47.8 14.252 48.4253 12.8893 49.676 11.9C50.9453 10.9107 52.7 10.416 54.94 10.416C57.2733 10.416 59.084 10.948 60.372 12.012C61.6787 13.0573 62.3787 14.5693 62.472 16.548H58.748C58.524 15.708 58.0947 15.0733 57.46 14.644C56.8253 14.196 55.976 13.972 54.912 13.972C53.8667 13.972 53.064 14.14 52.504 14.476C51.9627 14.7933 51.692 15.2507 51.692 15.848C51.692 16.296 51.888 16.66 52.28 16.94C52.672 17.2013 53.2693 17.3787 54.072 17.472L56.424 17.78C58.328 18.004 59.7373 18.5453 60.652 19.404C61.5667 20.244 62.024 21.42 62.024 22.932C62.024 24.0893 61.744 25.088 61.184 25.928C60.6427 26.7493 59.8493 27.384 58.804 27.832C57.7773 28.28 56.5267 28.504 55.052 28.504C52.812 28.504 51.0667 28.0093 49.816 27.02C48.5653 26.012 47.8653 24.5747 47.716 22.708H51.496ZM75.2175 17.248V20.384L70.7935 21.084C70.1401 21.1773 69.6361 21.4013 69.2815 21.756C68.9455 22.1107 68.7775 22.568 68.7775 23.128C68.7775 23.688 68.9735 24.136 69.3655 24.472C69.7575 24.808 70.2988 24.976 70.9895 24.976C71.7175 24.976 72.3801 24.8173 72.9775 24.5C73.5748 24.164 74.0508 23.7253 74.4055 23.184C74.7601 22.624 74.9375 21.9987 74.9375 21.308V17.08C74.9375 16.0907 74.6575 15.3253 74.0975 14.784C73.5375 14.2427 72.7348 13.972 71.6895 13.972C70.9801 13.972 70.3455 14.0933 69.7855 14.336C69.2255 14.56 68.7681 14.896 68.4135 15.344C68.0775 15.792 67.8441 16.3427 67.7135 16.996H63.8495C63.9615 15.6333 64.3535 14.4667 65.0255 13.496C65.6975 12.5067 66.6028 11.7507 67.7415 11.228C68.8988 10.6867 70.2335 10.416 71.7455 10.416C74.0415 10.416 75.7961 10.9667 77.0095 12.068C78.2415 13.1693 78.8575 14.7373 78.8575 16.772V28H74.9375V26.348H73.9575C73.5841 27.02 73.0615 27.5333 72.3895 27.888C71.7175 28.2427 70.8775 28.42 69.8695 28.42C68.8241 28.42 67.9095 28.2147 67.1255 27.804C66.3415 27.3933 65.7255 26.8147 65.2775 26.068C64.8481 25.3213 64.6335 24.4533 64.6335 23.464C64.6335 21.9893 65.1001 20.7947 66.0335 19.88C66.9668 18.9467 68.2921 18.34 70.0095 18.06L75.2175 17.248ZM81.8869 28V10.92H85.9189V12.404H86.8989C87.2909 11.7693 87.8229 11.284 88.4949 10.948C89.1669 10.5933 89.9229 10.416 90.7629 10.416C91.9203 10.416 92.9096 10.6867 93.7309 11.228C94.5709 11.7507 95.2149 12.516 95.6629 13.524C96.1109 14.5133 96.3349 15.6987 96.3349 17.08V28H92.3029V18.088C92.3029 16.8187 92.0323 15.8573 91.4909 15.204C90.9496 14.532 90.1563 14.196 89.1109 14.196C88.0656 14.196 87.2723 14.532 86.7309 15.204C86.1896 15.8573 85.9189 16.8187 85.9189 18.088V28H81.8869ZM101.632 17.696H111.376L110.032 19.292C110.032 17.5373 109.724 16.212 109.108 15.316C108.492 14.4013 107.578 13.944 106.364 13.944C105.076 13.944 104.087 14.42 103.396 15.372C102.724 16.3053 102.388 17.6307 102.388 19.348C102.388 21.196 102.724 22.596 103.396 23.548C104.087 24.5 105.114 24.976 106.476 24.976C107.279 24.976 107.988 24.7893 108.604 24.416C109.239 24.024 109.771 23.4547 110.2 22.708H114.036C113.7 23.9213 113.168 24.9667 112.44 25.844C111.731 26.7027 110.863 27.3653 109.836 27.832C108.81 28.28 107.662 28.504 106.392 28.504C104.75 28.504 103.34 28.14 102.164 27.412C100.988 26.684 100.083 25.6387 99.4484 24.276C98.8137 22.9133 98.4964 21.2707 98.4964 19.348C98.4964 17.5187 98.8231 15.9413 99.4764 14.616C100.13 13.272 101.044 12.236 102.22 11.508C103.396 10.78 104.778 10.416 106.364 10.416C107.895 10.416 109.202 10.7707 110.284 11.48C111.367 12.1707 112.198 13.1787 112.776 14.504C113.355 15.8107 113.644 17.3973 113.644 19.264C113.644 19.544 113.635 19.8053 113.616 20.048C113.598 20.2907 113.579 20.5333 113.56 20.776H101.632V17.696ZM124.766 28.448C123.907 28.448 123.123 28.2613 122.414 27.888C121.705 27.5147 121.182 27.02 120.846 26.404H119.866V28H115.834V4.256H119.866V12.516H120.846C121.182 11.8813 121.705 11.3867 122.414 11.032C123.123 10.6587 123.907 10.472 124.766 10.472C126.166 10.472 127.379 10.8453 128.406 11.592C129.433 12.32 130.226 13.356 130.786 14.7C131.346 16.0253 131.626 17.612 131.626 19.46C131.626 21.308 131.346 22.904 130.786 24.248C130.226 25.592 129.433 26.628 128.406 27.356C127.379 28.084 126.166 28.448 124.766 28.448ZM123.674 24.808C124.943 24.808 125.933 24.3413 126.642 23.408C127.351 22.456 127.706 21.14 127.706 19.46C127.706 17.78 127.351 16.4733 126.642 15.54C125.933 14.588 124.943 14.112 123.674 14.112C122.386 14.112 121.387 14.588 120.678 15.54C119.987 16.4733 119.642 17.78 119.642 19.46C119.642 21.1587 119.987 22.4747 120.678 23.408C121.387 24.3413 122.386 24.808 123.674 24.808ZM143.559 17.248V20.384L139.135 21.084C138.482 21.1773 137.978 21.4013 137.623 21.756C137.287 22.1107 137.119 22.568 137.119 23.128C137.119 23.688 137.315 24.136 137.707 24.472C138.099 24.808 138.641 24.976 139.331 24.976C140.059 24.976 140.722 24.8173 141.319 24.5C141.917 24.164 142.393 23.7253 142.747 23.184C143.102 22.624 143.279 21.9987 143.279 21.308V17.08C143.279 16.0907 142.999 15.3253 142.439 14.784C141.879 14.2427 141.077 13.972 140.031 13.972C139.322 13.972 138.687 14.0933 138.127 14.336C137.567 14.56 137.11 14.896 136.755 15.344C136.419 15.792 136.186 16.3427 136.055 16.996H132.191C132.303 15.6333 132.695 14.4667 133.367 13.496C134.039 12.5067 134.945 11.7507 136.083 11.228C137.241 10.6867 138.575 10.416 140.087 10.416C142.383 10.416 144.138 10.9667 145.351 12.068C146.583 13.1693 147.199 14.7373 147.199 16.772V28H143.279V26.348H142.299C141.926 27.02 141.403 27.5333 140.731 27.888C140.059 28.2427 139.219 28.42 138.211 28.42C137.166 28.42 136.251 28.2147 135.467 27.804C134.683 27.3933 134.067 26.8147 133.619 26.068C133.19 25.3213 132.975 24.4533 132.975 23.464C132.975 21.9893 133.442 20.7947 134.375 19.88C135.309 18.9467 136.634 18.34 138.351 18.06L143.559 17.248ZM154.009 22.708C154.27 23.436 154.699 23.996 155.297 24.388C155.894 24.7613 156.659 24.948 157.593 24.948C158.582 24.948 159.338 24.7893 159.861 24.472C160.383 24.1547 160.645 23.7067 160.645 23.128C160.645 22.6613 160.449 22.2973 160.057 22.036C159.665 21.756 159.067 21.56 158.265 21.448L155.913 21.168C154.027 20.9253 152.618 20.384 151.685 19.544C150.77 18.704 150.313 17.5187 150.313 15.988C150.313 14.252 150.938 12.8893 152.189 11.9C153.458 10.9107 155.213 10.416 157.453 10.416C159.786 10.416 161.597 10.948 162.885 12.012C164.191 13.0573 164.891 14.5693 164.985 16.548H161.261C161.037 15.708 160.607 15.0733 159.973 14.644C159.338 14.196 158.489 13.972 157.425 13.972C156.379 13.972 155.577 14.14 155.017 14.476C154.475 14.7933 154.205 15.2507 154.205 15.848C154.205 16.296 154.401 16.66 154.793 16.94C155.185 17.2013 155.782 17.3787 156.585 17.472L158.937 17.78C160.841 18.004 162.25 18.5453 163.165 19.404C164.079 20.244 164.537 21.42 164.537 22.932C164.537 24.0893 164.257 25.088 163.697 25.928C163.155 26.7493 162.362 27.384 161.317 27.832C160.29 28.28 159.039 28.504 157.565 28.504C155.325 28.504 153.579 28.0093 152.329 27.02C151.078 26.012 150.378 24.5747 150.229 22.708H154.009ZM169.974 17.696H179.718L178.374 19.292C178.374 17.5373 178.066 16.212 177.45 15.316C176.834 14.4013 175.92 13.944 174.706 13.944C173.418 13.944 172.429 14.42 171.738 15.372C171.066 16.3053 170.73 17.6307 170.73 19.348C170.73 21.196 171.066 22.596 171.738 23.548C172.429 24.5 173.456 24.976 174.818 24.976C175.621 24.976 176.33 24.7893 176.946 24.416C177.581 24.024 178.113 23.4547 178.542 22.708H182.378C182.042 23.9213 181.51 24.9667 180.782 25.844C180.073 26.7027 179.205 27.3653 178.178 27.832C177.152 28.28 176.004 28.504 174.734 28.504C173.092 28.504 171.682 28.14 170.506 27.412C169.33 26.684 168.425 25.6387 167.79 24.276C167.156 22.9133 166.838 21.2707 166.838 19.348C166.838 17.5187 167.165 15.9413 167.818 14.616C168.472 13.272 169.386 12.236 170.562 11.508C171.738 10.78 173.12 10.416 174.706 10.416C176.237 10.416 177.544 10.7707 178.626 11.48C179.709 12.1707 180.54 13.1787 181.118 14.504C181.697 15.8107 181.986 17.3973 181.986 19.264C181.986 19.544 181.977 19.8053 181.958 20.048C181.94 20.2907 181.921 20.5333 181.902 20.776H169.974V17.696Z" fill="#0C602E"/>
<path d="M3 19L3 9C3 5.68629 5.68629 3 9 3L29 3C32.3137 3 35 5.6863 35 9L35 19L3 19Z" fill="#EAF4EE"/>
<path d="M35 19L35 28C35 31.3137 32.3137 34 29 34L9 34C5.68629 34 3 31.3137 3 28L3 19L35 19Z" fill="#0C602E"/>
<path d="M3 18L3 27C3 30.866 6.13401 34 10 34L28 34C31.866 34 35 30.866 35 27L35 18" stroke="#0C602E" stroke-width="2"/>
<path d="M35 18L35 10C35 6.13401 31.866 3 28 3L10 3C6.13401 3 3 6.13401 3 10L3 18" stroke="#0C602E" stroke-width="2"/>
<rect x="1" y="1" width="36" height="35" rx="9" stroke="#8DCDA7" stroke-width="2"/>
<path d="M27.6667 18.375C27.6667 17.5462 26.7887 16.7513 25.2259 16.1653C23.6631 15.5792 21.5435 15.25 19.3333 15.25C17.1232 15.25 15.0036 15.5792 13.4408 16.1653C11.878 16.7513 11 17.5462 11 18.375C11 19.2038 11.878 19.9987 13.4408 20.5847C15.0036 21.1708 17.1232 21.5 19.3333 21.5C21.5435 21.5 23.6631 21.1708 25.2259 20.5847C26.7887 19.9987 27.6667 19.2038 27.6667 18.375Z" stroke="#0C602E" stroke-width="3" stroke-linecap="round" stroke-linejoin="round"/>
<path d="M27.6667 18.375C27.6667 17.5462 26.7887 16.7513 25.2259 16.1653C23.6631 15.5792 21.5435 15.25 19.3333 15.25C17.1232 15.25 15.0036 15.5792 13.4408 16.1653C11.878 16.7513 11 17.5462 11 18.375C11 19.2038 11.878 19.9987 13.4408 20.5847C15.0036 21.1708 17.1232 21.5 19.3333 21.5C21.5435 21.5 23.6631 21.1708 25.2259 20.5847C26.7887 19.9987 27.6667 19.2038 27.6667 18.375Z" stroke="#0C602E" stroke-width="3" stroke-linecap="round" stroke-linejoin="round"/>
<path d="M27.6667 18.375L27.6667 12.125C27.6667 11.2962 26.7887 10.5013 25.2259 9.91529C23.6631 9.32924 21.5435 9 19.3333 9C17.1232 9 15.0036 9.32924 13.4408 9.91529C11.878 10.5013 11 11.2962 11 12.125L11 18.375" stroke="#0C602E" stroke-width="3" stroke-linecap="round" stroke-linejoin="round"/>
<path d="M27.6667 18.375L27.6667 12.125C27.6667 11.2962 26.7887 10.5013 25.2259 9.91529C23.6631 9.32924 21.5435 9 19.3333 9C17.1232 9 15.0036 9.32924 13.4408 9.91529C11.878 10.5013 11 11.2962 11 12.125L11 18.375" stroke="#0C602E" stroke-width="3" stroke-linecap="round" stroke-linejoin="round"/>
<path d="M11 20C11 20.8288 11.878 21.6237 13.4408 22.2097C15.0036 22.7958 17.1232 23.125 19.3333 23.125C21.5435 23.125 23.6631 22.7958 25.2259 22.2097C26.7887 21.6237 27.6667 20.8288 27.6667 20" stroke="#EAF4EE" stroke-width="3" stroke-linecap="round" stroke-linejoin="round"/>
<path d="M11 20V26.25C11 27.0788 11.878 27.8737 13.4408 28.4597C15.0036 29.0458 17.1232 29.375 19.3333 29.375C21.5435 29.375 23.6631 29.0458 25.2259 28.4597C26.7887 27.8737 27.6667 27.0788 27.6667 26.25V20" stroke="#EAF4EE" stroke-width="3" stroke-linecap="round" stroke-linejoin="round"/>
<path d="M11 21V26.25C11 27.0788 11.878 27.8737 13.4408 28.4597C15.0036 29.0458 17.1232 29.375 19.3333 29.375C21.5435 29.375 23.6631 29.0458 25.2259 28.4597C26.7887 27.8737 27.6667 27.0788 27.6667 26.25V20" stroke="#EAF4EE" stroke-width="3" stroke-linecap="round" stroke-linejoin="round"/>
<rect x="9.5" y="16" width="19" height="2" fill="#0C602E"/>
<rect x="26" y="16" width="3.16" height="2" fill="#0C602E"/>
<rect x="9.5" y="17.4" width="19.67" height="4" fill="#EAF4EE"/>
<rect x="9.5" y="19" width="19.67" height="4" fill="#EAF4EE"/>
<rect x="8" y="19" width="22" height="2" fill="#0C602E"/>
</svg>
